<mxfile host="192.168.1.223" agent="Mozilla/5.0 (Windows NT 10.0; Win64; x64) AppleWebKit/537.36 (KHTML, like Gecko) Chrome/140.0.0.0 Safari/537.36 Edg/140.0.0.0" version="28.1.1">
  <diagram name="Page-1" id="YKhd7waz6j9EdEQfXy82">
    <mxGraphModel dx="984" dy="534" grid="1" gridSize="10" guides="1" tooltips="1" connect="1" arrows="1" fold="1" page="1" pageScale="1" pageWidth="850" pageHeight="1100" math="0" shadow="0">
      <root>
        <mxCell id="0" />
        <mxCell id="1" parent="0" />
        <mxCell id="tsNDWq4vnuum4S4u6vgP-1" value="" style="whiteSpace=wrap;html=1;aspect=fixed;" vertex="1" parent="1">
          <mxGeometry x="110" y="100" width="490" height="490" as="geometry" />
        </mxCell>
        <mxCell id="tsNDWq4vnuum4S4u6vgP-2" value="Select .csv file" style="rounded=0;whiteSpace=wrap;html=1;" vertex="1" parent="1">
          <mxGeometry x="120" y="110" width="130" height="20" as="geometry" />
        </mxCell>
        <mxCell id="tsNDWq4vnuum4S4u6vgP-4" value="Select Move to Directory" style="rounded=0;whiteSpace=wrap;html=1;" vertex="1" parent="1">
          <mxGeometry x="270" y="110" width="140" height="20" as="geometry" />
        </mxCell>
        <mxCell id="tsNDWq4vnuum4S4u6vgP-5" value="Image 1 Master" style="swimlane;whiteSpace=wrap;html=1;" vertex="1" parent="1">
          <mxGeometry x="130" y="221" width="140" height="100" as="geometry" />
        </mxCell>
        <mxCell id="tsNDWq4vnuum4S4u6vgP-6" value="Image 1 attributes from CSV" style="rounded=0;whiteSpace=wrap;html=1;" vertex="1" parent="1">
          <mxGeometry x="130" y="321" width="140" height="40" as="geometry" />
        </mxCell>
        <mxCell id="tsNDWq4vnuum4S4u6vgP-7" value="Move Button" style="rounded=1;whiteSpace=wrap;html=1;" vertex="1" parent="1">
          <mxGeometry x="125" y="371" width="75" height="20" as="geometry" />
        </mxCell>
        <mxCell id="tsNDWq4vnuum4S4u6vgP-8" value="Delete Button" style="rounded=1;whiteSpace=wrap;html=1;" vertex="1" parent="1">
          <mxGeometry x="210" y="371" width="75" height="20" as="geometry" />
        </mxCell>
        <mxCell id="tsNDWq4vnuum4S4u6vgP-9" value="Image 2" style="swimlane;whiteSpace=wrap;html=1;" vertex="1" parent="1">
          <mxGeometry x="345" y="221" width="140" height="100" as="geometry" />
        </mxCell>
        <mxCell id="tsNDWq4vnuum4S4u6vgP-10" value="Image 2 attributes from CSV" style="rounded=0;whiteSpace=wrap;html=1;" vertex="1" parent="1">
          <mxGeometry x="345" y="321" width="140" height="40" as="geometry" />
        </mxCell>
        <mxCell id="tsNDWq4vnuum4S4u6vgP-11" value="Move Button" style="rounded=1;whiteSpace=wrap;html=1;" vertex="1" parent="1">
          <mxGeometry x="340" y="371" width="75" height="20" as="geometry" />
        </mxCell>
        <mxCell id="tsNDWq4vnuum4S4u6vgP-12" value="Delete Button" style="rounded=1;whiteSpace=wrap;html=1;" vertex="1" parent="1">
          <mxGeometry x="425" y="371" width="75" height="20" as="geometry" />
        </mxCell>
        <mxCell id="tsNDWq4vnuum4S4u6vgP-13" value="Image 3" style="swimlane;whiteSpace=wrap;html=1;" vertex="1" parent="1">
          <mxGeometry x="130" y="414" width="140" height="100" as="geometry" />
        </mxCell>
        <mxCell id="tsNDWq4vnuum4S4u6vgP-14" value="Image 3 attributes from CSV" style="rounded=0;whiteSpace=wrap;html=1;" vertex="1" parent="1">
          <mxGeometry x="130" y="514" width="140" height="40" as="geometry" />
        </mxCell>
        <mxCell id="tsNDWq4vnuum4S4u6vgP-15" value="Move Button" style="rounded=1;whiteSpace=wrap;html=1;" vertex="1" parent="1">
          <mxGeometry x="125" y="564" width="75" height="20" as="geometry" />
        </mxCell>
        <mxCell id="tsNDWq4vnuum4S4u6vgP-16" value="Delete Button" style="rounded=1;whiteSpace=wrap;html=1;" vertex="1" parent="1">
          <mxGeometry x="210" y="564" width="75" height="20" as="geometry" />
        </mxCell>
        <mxCell id="tsNDWq4vnuum4S4u6vgP-18" value="" style="triangle;whiteSpace=wrap;html=1;" vertex="1" parent="1">
          <mxGeometry x="285" y="151.66" width="20" height="26.67" as="geometry" />
        </mxCell>
        <mxCell id="tsNDWq4vnuum4S4u6vgP-19" value="" style="triangle;whiteSpace=wrap;html=1;rotation=-180;" vertex="1" parent="1">
          <mxGeometry x="125" y="150" width="20" height="26.67" as="geometry" />
        </mxCell>
        <mxCell id="tsNDWq4vnuum4S4u6vgP-20" value="Group 2 of 6" style="text;html=1;align=center;verticalAlign=middle;whiteSpace=wrap;rounded=0;" vertex="1" parent="1">
          <mxGeometry x="160" y="150" width="100" height="30" as="geometry" />
        </mxCell>
        <mxCell id="tsNDWq4vnuum4S4u6vgP-23" value="Previous Group Button" style="text;html=1;align=center;verticalAlign=middle;whiteSpace=wrap;rounded=0;" vertex="1" parent="1">
          <mxGeometry x="97.5" y="176.67" width="75" height="30" as="geometry" />
        </mxCell>
        <mxCell id="tsNDWq4vnuum4S4u6vgP-24" value="Next Group Button" style="text;html=1;align=center;verticalAlign=middle;whiteSpace=wrap;rounded=0;" vertex="1" parent="1">
          <mxGeometry x="260" y="177" width="75" height="30" as="geometry" />
        </mxCell>
        <mxCell id="tsNDWq4vnuum4S4u6vgP-25" value="Click the images to pop open a window where users can zoom in and out" style="text;html=1;align=center;verticalAlign=middle;whiteSpace=wrap;rounded=0;" vertex="1" parent="1">
          <mxGeometry x="520" y="221" width="60" height="30" as="geometry" />
        </mxCell>
      </root>
    </mxGraphModel>
  </diagram>
</mxfile>
